<svg width="96" height="96" viewBox="0 0 96 96" fill="none" xmlns="http://www.w3.org/2000/svg">
<g clip-path="url(#clip0_128_2)">
<path d="M79.9709 48.4443C79.9717 55.5962 77.5813 62.3706 73.2112 67.8943C73.209 67.8972 73.2104 67.9016 73.2078 67.9045L73.1809 67.9351C72.427 68.8853 71.6318 69.8096 70.7607 70.6802C64.8252 76.6191 56.9287 79.8906 48.5298 79.8906C48.5254 79.8906 48.5232 79.8906 48.521 79.8906C48.5088 79.8906 48.4966 79.8887 48.4846 79.8887C48.4729 79.8887 48.4617 79.8904 48.4497 79.8904C48.4497 79.8904 48.4456 79.8904 48.4412 79.8904C40.0425 79.8904 32.1455 76.6191 26.21 70.6799C25.3394 69.8096 24.5449 68.8862 23.7905 67.9363L23.7629 67.9048C23.7605 67.9016 23.762 67.8972 23.7593 67.894C19.3894 62.3704 16.9988 55.5962 17 48.4443C16.9988 40.0449 20.2698 32.1482 26.2085 26.2112C29.6821 22.7356 33.8379 20.2046 38.3623 18.6772C38.4331 18.6531 38.5027 18.6252 38.5737 18.6016C39.1958 18.3967 39.8257 18.2197 40.4609 18.054C40.7612 17.9746 41.0618 17.8982 41.3645 17.8279C41.9043 17.7043 42.4456 17.5913 42.9934 17.4958C43.4333 17.4182 43.8772 17.3589 44.3215 17.2998C44.7783 17.2402 45.2329 17.1736 45.6941 17.134C46.4807 17.0642 47.2739 17.0293 48.0713 17.0181C48.1968 17.0168 48.3198 17 48.4456 17C48.4595 17 48.4731 17.0017 48.4871 17.0017C48.4998 17.0017 48.5127 17.0002 48.5254 17.0002C48.6428 17.0002 48.7573 17.0161 48.8743 17.0171C49.6814 17.0281 50.4841 17.064 51.2798 17.1343C51.7378 17.1736 52.1885 17.2397 52.6421 17.2988C53.0901 17.3579 53.5374 17.418 53.981 17.4963C54.5264 17.5913 55.0652 17.7039 55.603 17.8271C55.9082 17.8979 56.2109 17.9751 56.5132 18.0547C57.147 18.22 57.7751 18.3967 58.3953 18.6011C58.4683 18.6255 58.5403 18.6541 58.6133 18.6792C63.1355 20.2068 67.2898 22.7371 70.7617 26.2114C76.7012 32.1482 79.9717 40.0449 79.9709 48.4443ZM70.2708 65.0122C73.2969 61.0464 75.1685 56.3662 75.7039 51.4236H67.6899C67.4712 55.2839 66.8345 58.9861 65.7957 62.4402C67.3911 63.196 68.8931 64.0591 70.2708 65.0122ZM67.7627 47.323H75.8379C75.7463 45.0625 75.3638 42.8477 74.7351 40.7107C74.7073 40.6726 74.6626 40.6509 74.6479 40.6035C73.8555 37.9517 72.6611 35.4421 71.0981 33.134C69.6299 34.2261 68.0054 35.217 66.2549 36.0791C67.1726 39.6301 67.6797 43.4087 67.7627 47.323ZM65.0088 32.0725C66.2615 31.4158 67.4397 30.6824 68.5188 29.8816C67.4175 28.6897 66.2083 27.5952 64.9207 26.6218C63.6082 25.6294 62.2007 24.7625 60.7244 24.0193C61.3386 24.8345 61.9209 25.7029 62.46 26.6252C63.4292 28.2825 64.2844 30.1135 65.0088 32.0725ZM61.1775 33.7583C59.8696 30.1287 58.0908 27.061 56.0186 24.8672C54.8562 23.6311 53.615 22.6824 52.3293 22.0457C51.7415 21.7554 51.1404 21.554 50.5359 21.397V35.8386L50.6387 35.8369C51.1956 35.8069 51.751 35.7725 52.2998 35.7195C52.5242 35.6985 52.7488 35.6787 52.9717 35.6538C53.7683 35.5637 54.5574 35.4524 55.3347 35.3142C55.4011 35.3025 55.4683 35.2935 55.5349 35.2812C57.3313 34.9519 59.074 34.4966 60.7505 33.9138C60.8938 33.8643 61.0361 33.8113 61.1775 33.7583ZM50.5684 39.9475C50.5574 39.948 50.5469 39.949 50.5359 39.9497V47.3225H63.6584C63.5828 43.9856 63.1699 40.7522 62.4302 37.6978C62.3467 37.7288 62.2625 37.7595 62.1775 37.7893C60.2676 38.4521 58.2759 38.9541 56.2302 39.3232C56.1431 39.3389 56.054 39.3501 55.9663 39.3655C55.094 39.5171 54.2129 39.6438 53.3208 39.7412C53.0671 39.7695 52.8108 39.7888 52.5559 39.8125C52.1001 39.854 51.6499 39.9116 51.1899 39.9392L50.5684 39.9475ZM63.5847 51.4236H50.5359V58.792C50.5684 58.7939 50.6006 58.7966 50.6333 58.7983L51.1899 58.8062C51.5845 58.8301 51.9705 58.8784 52.3616 58.9126C52.6265 58.936 52.8918 58.9563 53.1553 58.9844C53.9768 59.0713 54.7888 59.1829 55.5933 59.3149C55.6836 59.3301 55.7754 59.3413 55.8657 59.3569C57.7986 59.6875 59.6836 60.1357 61.4939 60.7263C61.657 60.7793 61.8191 60.8354 61.98 60.8916C62.8423 57.9146 63.3821 54.7344 63.5847 51.4236ZM50.6858 62.908L50.5359 62.9058V75.499C51.0547 75.364 51.5725 75.1973 52.0823 74.9631C53.8809 74.134 55.6443 72.6453 57.1814 70.6589C58.4607 69.0103 59.5881 67.0283 60.5403 64.7627C60.4082 64.7153 60.2747 64.6702 60.1399 64.626C58.5452 64.1055 56.8923 63.6978 55.1931 63.4021C55.1465 63.394 55.0989 63.3877 55.052 63.3799C54.3086 63.2534 53.5549 63.1528 52.7947 63.0698C52.5898 63.0481 52.3838 63.0295 52.178 63.0107C51.6846 62.9646 51.1855 62.9358 50.6858 62.908ZM64.3994 66.3599C63.3672 68.8186 62.1379 70.9968 60.7327 72.8667C63.1909 71.6289 65.4412 70.0366 67.4375 68.1064C66.4749 67.4668 65.4539 66.8835 64.3994 66.3599ZM44.8887 74.9634C45.3984 75.1975 45.916 75.3643 46.4351 75.499V62.9055L46.2908 62.9077C45.7856 62.9355 45.2805 62.9651 44.7815 63.0115C44.5818 63.0298 44.3816 63.0479 44.1831 63.0691C43.4158 63.1526 42.6555 63.2539 41.906 63.3816C41.865 63.3887 41.8235 63.394 41.7827 63.4011C40.0815 63.6968 38.4272 64.105 36.8308 64.6262C36.696 64.6702 36.5625 64.7153 36.4304 64.7629C37.3823 67.0286 38.5103 69.0103 39.7893 70.6592C41.3264 72.6455 43.0896 74.134 44.8887 74.9634ZM46.3418 58.7981C46.373 58.7966 46.4041 58.7939 46.4351 58.792V51.4236H33.386C33.5891 54.7344 34.1287 57.9146 34.9905 60.8916C35.1516 60.8354 35.3137 60.7791 35.4773 60.7261C37.2886 60.135 39.1753 59.6865 41.1096 59.356C41.1938 59.3416 41.2791 59.3311 41.3633 59.3171C42.1743 59.1836 42.9924 59.071 43.8208 58.9839C44.0791 58.9561 44.3396 58.9363 44.5994 58.9131C44.9934 58.8789 45.3831 58.8301 45.7808 58.8062L46.3418 58.7981ZM33.312 47.3225H46.4351V39.95C46.4226 39.9492 46.4109 39.948 46.3984 39.9473L45.7808 39.939C45.3235 39.9116 44.8762 39.8542 44.4236 39.813C44.1643 39.7891 43.9036 39.7693 43.6455 39.7407C42.7588 39.6438 41.8831 39.5176 41.0159 39.3672C40.9236 39.3508 40.8293 39.3394 40.7371 39.3223C38.6926 38.9536 36.7019 38.4517 34.7932 37.7891C34.708 37.7595 34.6238 37.7285 34.5403 37.6978C33.8008 40.7522 33.3882 43.9856 33.312 47.3225ZM46.3279 35.8369L46.4351 35.8384V21.397C45.8306 21.554 45.2295 21.7554 44.6414 22.0457C43.3557 22.6824 42.1143 23.6313 40.9524 24.8674C38.8799 27.061 37.1011 30.1289 35.7935 33.7583C35.9346 33.8113 36.0769 33.8643 36.2205 33.9138C37.8955 34.4963 39.637 34.9512 41.4321 35.2805C41.5032 35.2935 41.5752 35.3037 41.6467 35.3159C42.4192 35.4531 43.2029 35.5635 43.9941 35.6533C44.2212 35.6785 44.4502 35.6987 44.6787 35.7205C45.2239 35.7725 45.7749 35.8069 46.3279 35.8369ZM34.5105 26.6252C35.0503 25.7029 35.6323 24.8342 36.2468 24.0193C34.7703 24.7625 33.3625 25.6294 32.0503 26.6221C30.7625 27.5952 29.5532 28.6897 28.4517 29.8818C29.531 30.6826 30.709 31.4158 31.9617 32.0728C32.6858 30.1133 33.5415 28.2825 34.5105 26.6252ZM30.7156 36.0791C28.9653 35.217 27.3406 34.2261 25.8728 33.1338C24.3096 35.4419 23.1152 37.9517 22.3228 40.6035C22.3084 40.6509 22.2637 40.6729 22.2356 40.7109C21.6067 42.8479 21.2244 45.0625 21.1328 47.3228H29.208C29.2913 43.4084 29.7986 39.6301 30.7156 36.0791ZM29.281 51.4236H21.2676C21.8025 56.3662 23.6738 61.0461 26.6997 65.0122C28.0781 64.0588 29.5796 63.1958 31.1755 62.4399C30.1365 58.9858 29.4995 55.2837 29.281 51.4236ZM32.5718 66.3599C31.5171 66.8833 30.4961 67.4668 29.5332 68.1067C31.5293 70.0366 33.7798 71.6289 36.2383 72.8669C34.833 70.9968 33.6038 68.8186 32.5718 66.3599Z" fill="#E3000F"/>
</g>
<defs>
<clipPath id="clip0_128_2">
<rect width="62.9709" height="62.8906" fill="white" transform="translate(17 17)"/>
</clipPath>
</defs>
</svg>
