<?xml version="1.0" encoding="utf-8"?>
<!-- Generator: Adobe Illustrator 27.0.1, SVG Export Plug-In . SVG Version: 6.00 Build 0)  -->
<svg version="1.1" id="Ebene_1" xmlns="http://www.w3.org/2000/svg" xmlns:xlink="http://www.w3.org/1999/xlink" x="0px" y="0px"
	 viewBox="0 0 49.322998 62.9414062" style="enable-background:new 0 0 49.322998 62.9414062;" xml:space="preserve">
<style type="text/css">
	.st0{fill:#E3000F;}
</style>
<g>
	<path class="st0" d="M49.322998,58.265625c0,2.578125-2.1035156,4.6757812-4.6884766,4.6757812
		c-21.392334,0-40.3688965-0.0507812-40.3688965-0.0507812c-2.3330078,0-4.2333984-1.9023438-4.2333984-4.2382812
		s1.9003906-4.2382812,4.2373047-4.2382812l36.7585449-0.0039062V3H3v48.5742188c0,0.8320312-0.671875,1.5-1.5,1.5
		s-1.5-0.6679688-1.5-1.5V1.5C0,0.671875,0.671875,0,1.5,0h41.0280762c0.828125,0,1.5,0.671875,1.5,1.5v54.4101562
		c0,0.8320312-0.671875,1.5-1.5,1.5L4.2695312,57.4140625c-0.6826172,0-1.2373047,0.5546875-1.2373047,1.2382812
		s0.5546875,1.2382812,1.2373047,1.2382812c0.0048828,0,18.9775391,0.0507812,40.3649902,0.0507812
		c0.9309082,0,1.6884766-0.7539062,1.6884766-1.6757812V4.5546875c0-0.828125,0.671875-1.5,1.5-1.5s1.5,0.671875,1.5,1.5V58.265625
		L49.322998,58.265625z M12.5700684,15.4296875c0.4882812,0,1.5202637,0.2460938,2.159668,0.6601562l1.3891602-2.3125
		c-1.112793-0.5859375-2.7209473-1.1679688-3.9829102-1.1679688c-2.5080566,0-4.3186035,1.5507812-4.3186035,3.9257812
		c0,2.7265625,1.8786621,3.234375,3.3881836,3.6210938c0.6994629,0.1796875,1.9130859,0.2265625,1.9130859,1.078125
		c0,0.8203125-0.75,1.0507812-1.5146484,1.0507812c-1.1118164,0-2.0756836-0.609375-2.8896484-1.2734375L7.255127,23.4609375
		c1.3220215,1.078125,2.8879395,1.4609375,4.4655762,1.4609375c1.2626953,0,2.5739746-0.390625,3.5546875-1.1640625
		c0.996582-0.7890625,1.2944336-1.921875,1.2944336-3.0859375c0-2.0664062-1.1591797-2.6132812-2.7141113-3.125
		c-0.3601074-0.1171875-1.204834-0.3007812-1.204834-0.3007812c-0.6875-0.1835938-1.4453125-0.3125-1.4453125-0.9960938
		C11.2055664,15.5976562,11.972168,15.4296875,12.5700684,15.4296875L12.5700684,15.4296875z M26.3137207,16.7070312
		c0-1.703125-0.7785645-3.8632812-3.7590332-3.8632812h-5.1865234v11.7226562h3.3395996v-3.8671875h1.6999512
		C25.359375,20.6992188,26.3137207,19.0039062,26.3137207,16.7070312L26.3137207,16.7070312z M23.1586914,16.765625
		c0,1.4335938-1.0913086,1.3710938-2.1982422,1.3710938h-0.2585449v-2.7382812h0.2585449
		C22.1452637,15.3984375,23.1586914,15.3984375,23.1586914,16.765625L23.1586914,16.765625z M31.9985352,24.6132812h-4.9489746
		V12.890625h4.9489746c3.2570801,0,5.2370605,2.5585938,5.2370605,5.8476562S35.2397461,24.6132812,31.9985352,24.6132812
		L31.9985352,24.6132812z M30.7485352,15.6210938h-0.3937988v6.2617188h0.3632812
		c1.8144531,0,3.1728516-1.0664062,3.1728516-3.1953125C33.8908691,16.8984375,32.703125,15.6210938,30.7485352,15.6210938
		L30.7485352,15.6210938z"/>
</g>
</svg>
