<svg width="2500" height="2500" viewBox="0 0 2500 2500" fill="none" xmlns="http://www.w3.org/2000/svg">
<g clip-path="url(#clip0_109_2)">
<path d="M237.79 888.5L257 -146.628L276.21 888.5H257H237.79Z" fill="#E3000F" stroke="#E3000F" stroke-width="31"/>
<path d="M175.754 892H338.246C344.322 892 348.994 897.373 348.149 903.39L335.657 992.397C333.133 1010.38 333.133 1028.62 335.657 1046.6L348.964 1141.42L311.14 1130.9C277.928 1121.66 242.862 1121.4 209.514 1130.13L164.984 1141.79L178.343 1046.6C180.867 1028.62 180.867 1010.38 178.343 992.397L165.851 903.39C165.006 897.373 169.678 892 175.754 892Z" fill="#E3000F" stroke="#E3000F" stroke-width="30"/>
<path d="M201.449 1552.91C237.695 1563.69 276.305 1563.69 312.551 1552.91L341.268 2632.68C341.448 2639.43 336.025 2645 329.272 2645H184.728C177.975 2645 172.552 2639.43 172.732 2632.68L201.449 1552.91Z" fill="#E3000F" stroke="#E3000F" stroke-width="30"/>
<path d="M485 1342C485 1460.59 383.646 1558 257 1558C130.354 1558 29 1460.59 29 1342C29 1223.41 130.354 1126 257 1126C383.646 1126 485 1223.41 485 1342Z" fill="#E3000F" stroke="#E3000F" stroke-width="30"/>
<mask id="path-5-inside-1_109_2" fill="white">
<rect x="142" y="1598" width="230" height="70" rx="25"/>
</mask>
<rect x="142" y="1598" width="230" height="70" rx="25" fill="#E3000F" stroke="#E3000F" stroke-width="60" mask="url(#path-5-inside-1_109_2)"/>
<mask id="path-6-inside-2_109_2" fill="white">
<rect x="142" y="1598" width="230" height="70" rx="25"/>
</mask>
<rect x="142" y="1598" width="230" height="70" rx="25" fill="#E3000F" stroke="#E3000F" stroke-width="60" mask="url(#path-6-inside-2_109_2)"/>
<rect x="215" y="1538" width="84" height="60" fill="#E3000F"/>
<path d="M186 1098H328L336 1158H178L186 1098Z" fill="#E3000F"/>
<path d="M1125.5 2115.5C1125.5 2150.7 1118.9 2182.97 1105.7 2212.3C1093.23 2240.9 1074.17 2265.83 1048.5 2287.1C1022.83 2308.37 991.667 2324.87 955 2336.6C918.333 2348.33 876.533 2354.2 829.6 2354.2C797.333 2354.2 766.167 2352.37 736.1 2348.7C706.767 2345.77 679.267 2341 653.6 2334.4L669 2171.6C694.667 2181.87 722.167 2189.93 751.5 2195.8C780.833 2201.67 809.8 2204.6 838.4 2204.6C869.933 2204.6 894.867 2198.73 913.2 2187C932.267 2175.27 941.8 2157.3 941.8 2133.1C941.8 2114.03 935.2 2098.27 922 2085.8C908.8 2073.33 889.733 2061.97 864.8 2051.7C840.6 2040.7 814.567 2028.97 786.7 2016.5C759.567 2004.03 735 1989.73 713 1973.6C691.733 1957.47 674.133 1936.2 660.2 1909.8C646.267 1883.4 639.3 1851.13 639.3 1813C639.3 1779.27 645.9 1748.47 659.1 1720.6C672.3 1692 691.367 1667.8 716.3 1648C741.967 1627.47 773.133 1612.07 809.8 1601.8C846.467 1590.8 887.533 1585.3 933 1585.3C953.533 1585.3 975.9 1586.77 1000.1 1589.7C1025.03 1591.9 1047.77 1595.2 1068.3 1599.6L1052.9 1749.2C1011.1 1734.53 967.467 1727.2 922 1727.2C887.533 1727.2 861.867 1733.43 845 1745.9C828.133 1757.63 819.7 1774.5 819.7 1796.5C819.7 1814.1 826.3 1829.13 839.5 1841.6C853.433 1853.33 872.133 1864.7 895.6 1875.7C919.8 1885.97 946.2 1897.7 974.8 1910.9C1003.4 1923.37 1028.7 1938.03 1050.7 1954.9C1072.7 1971.03 1090.67 1992.3 1104.6 2018.7C1118.53 2045.1 1125.5 2077.37 1125.5 2115.5ZM1746.95 1837.2C1746.95 1875.33 1740.35 1911.27 1727.15 1945C1713.95 1978 1694.15 2007.33 1667.75 2033C1641.35 2057.93 1608.72 2077.73 1569.85 2092.4C1531.72 2106.33 1487.72 2113.3 1437.85 2113.3C1428.32 2113.3 1419.15 2113.3 1410.35 2113.3C1402.28 2112.57 1396.42 2112.2 1392.75 2112.2V2341H1221.15V1598.5C1229.22 1597.77 1243.52 1597.03 1264.05 1596.3C1284.58 1595.57 1311.35 1594.83 1344.35 1594.1C1378.08 1593.37 1412.18 1593 1446.65 1593C1544.18 1593 1618.62 1614.27 1669.95 1656.8C1721.28 1699.33 1746.95 1759.47 1746.95 1837.2ZM1570.95 1853.7C1570.95 1817.03 1559.95 1788.07 1537.95 1766.8C1516.68 1744.8 1484.05 1733.8 1440.05 1733.8C1431.25 1733.8 1422.08 1734.17 1412.55 1734.9C1403.75 1734.9 1397.15 1735.27 1392.75 1736V1969.2C1393.48 1969.2 1395.32 1969.57 1398.25 1970.3C1401.18 1970.3 1405.22 1970.67 1410.35 1971.4C1415.48 1972.13 1420.98 1972.87 1426.85 1973.6C1433.45 1973.6 1440.05 1973.6 1446.65 1973.6C1485.52 1973.6 1515.95 1962.97 1537.95 1941.7C1559.95 1919.7 1570.95 1890.37 1570.95 1853.7ZM2272.4 1968.1C2272.4 1932.9 2269.1 1901.37 2262.5 1873.5C2256.64 1844.9 2246 1820.7 2230.6 1800.9C2215.2 1781.1 2194.67 1765.7 2169 1754.7C2143.34 1743.7 2111.44 1738.2 2073.3 1738.2C2058.64 1738.2 2045.44 1738.2 2033.7 1738.2C2022.7 1738.2 2012.44 1738.93 2002.9 1740.4V2194.7C2010.24 2196.17 2019.4 2197.27 2030.4 2198C2041.4 2198.73 2053.5 2199.1 2066.7 2199.1C2096.04 2199.1 2123.17 2194.7 2148.1 2185.9C2173.77 2176.37 2195.77 2162.07 2214.1 2143C2232.44 2123.93 2246.74 2100.1 2257 2071.5C2267.27 2042.17 2272.4 2007.7 2272.4 1968.1ZM2456.1 1954.9C2456.1 2018.7 2446.2 2075.17 2426.4 2124.3C2407.34 2172.7 2379.84 2213.4 2343.9 2246.4C2308.7 2279.4 2266.17 2304.33 2216.3 2321.2C2166.44 2338.07 2111.44 2346.5 2051.3 2346.5C2011.7 2346.5 1973.57 2345.77 1936.9 2344.3C1900.97 2342.83 1865.77 2341.37 1831.3 2339.9V1600.7C1860.64 1599.23 1897.3 1597.77 1941.3 1596.3C1986.04 1594.83 2033.7 1594.1 2084.3 1594.1C2140.04 1594.1 2190.64 1600.7 2236.1 1613.9C2282.3 1626.37 2321.54 1646.9 2353.8 1675.5C2386.07 1704.1 2411 1741.5 2428.6 1787.7C2446.94 1833.17 2456.1 1888.9 2456.1 1954.9Z" fill="#E3000F"/>
</g>
<defs>
<clipPath id="clip0_109_2">
<rect width="2500" height="2500" fill="white"/>
</clipPath>
</defs>
</svg>
